<?xml version="1.0" standalone="no"?>
<!DOCTYPE svg PUBLIC "-//W3C//DTD SVG 20010904//EN"
 "http://www.w3.org/TR/2001/REC-SVG-20010904/DTD/svg10.dtd">
<svg version="1.0" xmlns="http://www.w3.org/2000/svg"
 width="308.7612359841165pt" height="304.915625pt" viewBox="0 0 1024.000000 1024.000000"
 preserveAspectRatio="xMidYMid meet">

<g transform="translate(0.000000,1024.000000) scale(0.100000,-0.100000)"
fill="#000000" stroke="none">
<path d="M0 5120 l0 -5120 5120 0 5120 0 0 5120 0 5120 -5120 0 -5120 0 0
-5120z m5740 2603 c139 -26 223 -52 350 -106 371 -159 662 -431 839 -786 100
-200 141 -368 148 -613 6 -206 -5 -323 -47 -473 -91 -322 -285 -592 -575 -800
-96 -69 -160 -102 -280 -144 -194 -68 -117 -64 -1430 -67 -655 -2 -1265 -5
-1357 -7 l-167 -5 5 117 c2 64 6 217 8 341 2 124 5 249 5 277 l1 53 1188 2
1187 3 75 23 c98 30 233 103 295 160 67 61 157 212 179 299 41 165 26 321 -46
464 -48 97 -172 231 -282 308 -86 59 -236 122 -346 145 -183 39 -676 55 -1522
51 l-707 -4 -5 27 c-4 15 -7 188 -9 385 -1 262 1 360 10 365 6 4 541 7 1190 6
1161 0 1180 0 1293 -21z m-1604 -1145 c4 -18 8 -180 8 -360 l1 -328 -285 1
c-348 1 -586 11 -600 25 -6 6 -13 137 -17 347 l-8 336 130 4 c72 1 273 4 447
5 l316 2 8 -32z m1665 -2300 c88 -84 221 -218 296 -298 75 -80 239 -251 363
-380 334 -348 407 -425 494 -530 44 -52 107 -124 141 -160 90 -95 99 -116 101
-233 1 -53 -2 -99 -6 -102 -3 -2 -190 -5 -415 -6 l-409 -1 -35 38 c-40 45
-222 231 -937 959 -286 292 -563 575 -614 630 -96 103 -200 225 -200 234 0 4
239 5 530 4 l531 -1 160 -154z m-1681 -772 l0 -925 -432 -3 c-238 -2 -435 -1
-438 0 -3 2 -4 243 -3 535 1 293 2 709 2 925 l1 392 435 0 435 0 0 -924z"/>
<path d="M6459 5013 c-13 -16 -12 -17 4 -4 9 7 17 15 17 17 0 8 -8 3 -21 -13z"/>
<path d="M6419 4983 c-13 -16 -12 -17 4 -4 9 7 17 15 17 17 0 8 -8 3 -21 -13z"/>
<path d="M6048 4823 c7 -3 16 -2 19 1 4 3 -2 6 -13 5 -11 0 -14 -3 -6 -6z"/>
<path d="M6588 2613 c17 -2 47 -2 65 0 17 2 3 4 -33 4 -36 0 -50 -2 -32 -4z"/>
<path d="M6903 2613 c26 -2 68 -2 95 0 26 2 4 3 -48 3 -52 0 -74 -1 -47 -3z"/>
<path d="M3375 2631 c-22 -3 109 -6 290 -6 192 0 288 3 230 6 -126 8 -467 8
-520 0z"/>
</g>
</svg>
